<svg xmlns="http://www.w3.org/2000/svg" viewBox="0 0 1600 1000" width="1600" height="1000" preserveAspectRatio="xMidYMid slice"><defs><linearGradient id="wall" x1="0" y1="0" x2="0" y2="1"><stop offset="0" stop-color="#FFF3D1"/><stop offset="1" stop-color="#F6D98A"/></linearGradient></defs><rect width="1600" height="1000" fill="url(#wall)"/><rect y="800" width="1600" height="200" fill="#C79A5B"/><path d="M0 0 l60 120 l60 -120z" fill="#0B5D4B"/><path d="M120 0 l60 120 l60 -120z" fill="#D4A72C"/><path d="M240 0 l60 120 l60 -120z" fill="#C5533F"/><path d="M360 0 l60 120 l60 -120z" fill="#2F6F9F"/><path d="M480 0 l60 120 l60 -120z" fill="#0B5D4B"/><path d="M600 0 l60 120 l60 -120z" fill="#D4A72C"/><path d="M720 0 l60 120 l60 -120z" fill="#C5533F"/><path d="M840 0 l60 120 l60 -120z" fill="#2F6F9F"/><path d="M960 0 l60 120 l60 -120z" fill="#0B5D4B"/><path d="M1080 0 l60 120 l60 -120z" fill="#D4A72C"/><path d="M1200 0 l60 120 l60 -120z" fill="#C5533F"/><path d="M1320 0 l60 120 l60 -120z" fill="#2F6F9F"/><path d="M1440 0 l60 120 l60 -120z" fill="#0B5D4B"/><path d="M1560 0 l60 120 l60 -120z" fill="#D4A72C"/><g><ellipse cx="330" cy="922" rx="106.92000000000002" ry="11.0" fill="#000" opacity=".12"/><rect x="296.736" y="766.4" width="42.768" height="153.60000000000002" rx="17.107200000000002" fill="#D4A72C"/><ellipse cx="315.12" cy="918" rx="32.076" ry="8.8" fill="#1b1b1b"/><rect x="320.496" y="766.4" width="42.768" height="153.60000000000002" rx="17.107200000000002" fill="#D4A72C"/><ellipse cx="344.88" cy="918" rx="32.076" ry="8.8" fill="#1b1b1b"/><rect x="379.896" y="537.1999999999999" width="33.0" height="132.0" rx="16.5" fill="#8D5524" transform="rotate(14 383.46000000000004 625.1999999999999)"/><rect x="270.6" y="625.1999999999999" width="118.80000000000001" height="149.20000000000002" rx="26.136000000000003" fill="#C5533F"/><rect x="252.45000000000002" y="628.1999999999999" width="33.0" height="123.42000000000002" rx="16.5" fill="#C5533F"/><circle cx="268.95000000000005" cy="755.8799999999999" r="18.150000000000002" fill="#8D5524"/><rect x="310.75" y="597.6999999999999" width="38.5" height="44.0" fill="#8D5524"/><circle cx="330" cy="567.4499999999999" r="55.0" fill="#8D5524"/><path d="M272.25 572.9499999999999 A57.75 60.50000000000001 0 0 1 387.75 572.9499999999999 Q330 526.1999999999999 272.25 572.9499999999999Z" fill="#1A1008"/><circle cx="275.0" cy="542.6999999999999" r="23.099999999999998" fill="#1A1008"/><circle cx="385.0" cy="542.6999999999999" r="23.099999999999998" fill="#1A1008"/><circle cx="310.75" cy="574.05" r="4.95" fill="#1a1008"/><circle cx="349.25" cy="574.05" r="4.95" fill="#1a1008"/><path d="M314.6 592.1999999999999 Q330 603.1999999999999 345.4 592.1999999999999" stroke="#2b1408" stroke-width="4.4" fill="none" stroke-linecap="round"/></g><path d="M282 638.4 h96 M282 673.5999999999999 h96" stroke="#fff" stroke-width="6" opacity=".6"/><g><ellipse cx="560" cy="922" rx="97.2" ry="10.0" fill="#000" opacity=".12"/><rect x="529.76" y="780.0" width="38.879999999999995" height="140.0" rx="15.552" fill="#0B5D4B"/><ellipse cx="546.2" cy="918" rx="29.159999999999997" ry="8.0" fill="#1b1b1b"/><rect x="551.3599999999999" y="780.0" width="38.879999999999995" height="140.0" rx="15.552" fill="#0B5D4B"/><ellipse cx="573.8" cy="918" rx="29.159999999999997" ry="8.0" fill="#1b1b1b"/><rect x="506.0" y="652.0" width="108.0" height="136.0" rx="23.76" fill="#2F6F9F"/><rect x="489.5" y="655.0" width="30.0" height="112.2" rx="15.0" fill="#2F6F9F"/><circle cx="504.5" cy="770.8" r="16.5" fill="#6B3E1E"/><rect x="600.5" y="655.0" width="30.0" height="112.2" rx="15.0" fill="#2F6F9F"/><circle cx="615.5" cy="770.8" r="16.5" fill="#6B3E1E"/><rect x="542.5" y="627.0" width="35.0" height="40.0" fill="#6B3E1E"/><circle cx="560" cy="599.5" r="50.0" fill="#6B3E1E"/><path d="M507.5 604.5 A52.5 55.00000000000001 0 0 1 612.5 604.5 Q560 562.0 507.5 604.5Z" fill="#1A1008"/><circle cx="542.5" cy="605.5" r="4.5" fill="#1a1008"/><circle cx="577.5" cy="605.5" r="4.5" fill="#1a1008"/><path d="M546.0 622.0 Q560 632.0 574.0 622.0" stroke="#2b1408" stroke-width="4.0" fill="none" stroke-linecap="round"/></g><path d="M512 638.4 h96 M512 673.5999999999999 h96" stroke="#fff" stroke-width="6" opacity=".6"/><g><ellipse cx="790" cy="922" rx="106.92000000000002" ry="11.0" fill="#000" opacity=".12"/><rect x="756.736" y="766.4" width="42.768" height="153.60000000000002" rx="17.107200000000002" fill="#7B4FA0"/><ellipse cx="775.12" cy="918" rx="32.076" ry="8.8" fill="#1b1b1b"/><rect x="780.496" y="766.4" width="42.768" height="153.60000000000002" rx="17.107200000000002" fill="#7B4FA0"/><ellipse cx="804.88" cy="918" rx="32.076" ry="8.8" fill="#1b1b1b"/><rect x="839.896" y="537.1999999999999" width="33.0" height="132.0" rx="16.5" fill="#A9673A" transform="rotate(14 843.46 625.1999999999999)"/><rect x="730.6" y="625.1999999999999" width="118.80000000000001" height="149.20000000000002" rx="26.136000000000003" fill="#D4A72C"/><rect x="712.45" y="628.1999999999999" width="33.0" height="123.42000000000002" rx="16.5" fill="#D4A72C"/><circle cx="728.95" cy="755.8799999999999" r="18.150000000000002" fill="#A9673A"/><rect x="770.75" y="597.6999999999999" width="38.5" height="44.0" fill="#A9673A"/><circle cx="790" cy="567.4499999999999" r="55.0" fill="#A9673A"/><path d="M732.25 572.9499999999999 A57.75 60.50000000000001 0 0 1 847.75 572.9499999999999 Q790 526.1999999999999 732.25 572.9499999999999Z" fill="#1A1008"/><circle cx="735.0" cy="542.6999999999999" r="23.099999999999998" fill="#1A1008"/><circle cx="845.0" cy="542.6999999999999" r="23.099999999999998" fill="#1A1008"/><circle cx="770.75" cy="574.05" r="4.95" fill="#1a1008"/><circle cx="809.25" cy="574.05" r="4.95" fill="#1a1008"/><path d="M774.6 592.1999999999999 Q790 603.1999999999999 805.4 592.1999999999999" stroke="#2b1408" stroke-width="4.4" fill="none" stroke-linecap="round"/></g><path d="M742 638.4 h96 M742 673.5999999999999 h96" stroke="#fff" stroke-width="6" opacity=".6"/><g><ellipse cx="1020" cy="922" rx="97.2" ry="10.0" fill="#000" opacity=".12"/><rect x="989.76" y="780.0" width="38.879999999999995" height="140.0" rx="15.552" fill="#C5533F"/><ellipse cx="1006.2" cy="918" rx="29.159999999999997" ry="8.0" fill="#1b1b1b"/><rect x="1011.3599999999999" y="780.0" width="38.879999999999995" height="140.0" rx="15.552" fill="#C5533F"/><ellipse cx="1033.8" cy="918" rx="29.159999999999997" ry="8.0" fill="#1b1b1b"/><rect x="966.0" y="652.0" width="108.0" height="136.0" rx="23.76" fill="#0B5D4B"/><rect x="949.5" y="655.0" width="30.0" height="112.2" rx="15.0" fill="#0B5D4B"/><circle cx="964.5" cy="770.8" r="16.5" fill="#4A2A14"/><rect x="1060.5" y="655.0" width="30.0" height="112.2" rx="15.0" fill="#0B5D4B"/><circle cx="1075.5" cy="770.8" r="16.5" fill="#4A2A14"/><rect x="1002.5" y="627.0" width="35.0" height="40.0" fill="#4A2A14"/><circle cx="1020" cy="599.5" r="50.0" fill="#4A2A14"/><path d="M967.5 604.5 A52.5 55.00000000000001 0 0 1 1072.5 604.5 Q1020 562.0 967.5 604.5Z" fill="#1A1008"/><circle cx="1002.5" cy="605.5" r="4.5" fill="#1a1008"/><circle cx="1037.5" cy="605.5" r="4.5" fill="#1a1008"/><path d="M1006.0 622.0 Q1020 632.0 1034.0 622.0" stroke="#2b1408" stroke-width="4.0" fill="none" stroke-linecap="round"/></g><path d="M972 638.4 h96 M972 673.5999999999999 h96" stroke="#fff" stroke-width="6" opacity=".6"/><g><ellipse cx="1250" cy="922" rx="106.92000000000002" ry="11.0" fill="#000" opacity=".12"/><rect x="1216.7359999999999" y="766.4" width="42.768" height="153.60000000000002" rx="17.107200000000002" fill="#2F6F9F"/><ellipse cx="1235.12" cy="918" rx="32.076" ry="8.8" fill="#1b1b1b"/><rect x="1240.496" y="766.4" width="42.768" height="153.60000000000002" rx="17.107200000000002" fill="#2F6F9F"/><ellipse cx="1264.88" cy="918" rx="32.076" ry="8.8" fill="#1b1b1b"/><rect x="1299.896" y="537.1999999999999" width="33.0" height="132.0" rx="16.5" fill="#C68642" transform="rotate(14 1303.46 625.1999999999999)"/><rect x="1190.6" y="625.1999999999999" width="118.80000000000001" height="149.20000000000002" rx="26.136000000000003" fill="#7B4FA0"/><rect x="1172.4499999999998" y="628.1999999999999" width="33.0" height="123.42000000000002" rx="16.5" fill="#7B4FA0"/><circle cx="1188.9499999999998" cy="755.8799999999999" r="18.150000000000002" fill="#C68642"/><rect x="1230.75" y="597.6999999999999" width="38.5" height="44.0" fill="#C68642"/><circle cx="1250" cy="567.4499999999999" r="55.0" fill="#C68642"/><path d="M1192.25 572.9499999999999 A57.75 60.50000000000001 0 0 1 1307.75 572.9499999999999 Q1250 526.1999999999999 1192.25 572.9499999999999Z" fill="#1A1008"/><circle cx="1195.0" cy="542.6999999999999" r="23.099999999999998" fill="#1A1008"/><circle cx="1305.0" cy="542.6999999999999" r="23.099999999999998" fill="#1A1008"/><circle cx="1230.75" cy="574.05" r="4.95" fill="#1a1008"/><circle cx="1269.25" cy="574.05" r="4.95" fill="#1a1008"/><path d="M1234.6 592.1999999999999 Q1250 603.1999999999999 1265.4 592.1999999999999" stroke="#2b1408" stroke-width="4.4" fill="none" stroke-linecap="round"/></g><path d="M1202 638.4 h96 M1202 673.5999999999999 h96" stroke="#fff" stroke-width="6" opacity=".6"/><ellipse cx="1480" cy="870" rx="60" ry="90" fill="#8A5A2B"/><ellipse cx="1480" cy="790" rx="60" ry="22" fill="#E8D4A0"/></svg>