<svg xmlns="http://www.w3.org/2000/svg" viewBox="0 0 1600 1000" width="1600" height="1000" preserveAspectRatio="xMidYMid slice"><defs><linearGradient id="wall" x1="0" y1="0" x2="0" y2="1"><stop offset="0" stop-color="#FFF3D1"/><stop offset="1" stop-color="#F6E3A8"/></linearGradient></defs><rect width="1600" height="1000" fill="url(#wall)"/><rect x="60" y="90" width="520" height="560" rx="6" fill="#8A5A2B"/><rect x="66" y="268.66666666666663" width="508" height="8" fill="#6B4220"/><rect x="70" y="138.66666666666663" width="19" height="130" rx="2" fill="#7B4FA0"/><rect x="92" y="152.66666666666663" width="18" height="116" rx="2" fill="#7B4FA0"/><rect x="113" y="135.66666666666663" width="23" height="133" rx="2" fill="#7B4FA0"/><rect x="139" y="137.66666666666663" width="17" height="131" rx="2" fill="#0B5D4B"/><rect x="159" y="122.66666666666663" width="30" height="146" rx="2" fill="#2F6F9F"/><rect x="192" y="140.66666666666663" width="20" height="128" rx="2" fill="#D4A72C"/><rect x="215" y="130.66666666666663" width="19" height="138" rx="2" fill="#2F6F9F"/><rect x="237" y="122.66666666666663" width="24" height="146" rx="2" fill="#7B4FA0"/><rect x="264" y="150.66666666666663" width="23" height="118" rx="2" fill="#E8E0C8"/><rect x="290" y="166.66666666666663" width="29" height="102" rx="2" fill="#D4A72C"/><rect x="322" y="166.66666666666663" width="26" height="102" rx="2" fill="#7B4FA0"/><rect x="351" y="128.66666666666663" width="22" height="140" rx="2" fill="#0B5D4B"/><rect x="376" y="126.66666666666663" width="26" height="142" rx="2" fill="#0B5D4B"/><rect x="405" y="127.66666666666663" width="18" height="141" rx="2" fill="#7B4FA0"/><rect x="426" y="156.66666666666663" width="16" height="112" rx="2" fill="#0B5D4B"/><rect x="445" y="120.66666666666663" width="29" height="148" rx="2" fill="#C5533F"/><rect x="477" y="137.66666666666663" width="23" height="131" rx="2" fill="#E8E0C8"/><rect x="503" y="119.66666666666663" width="30" height="149" rx="2" fill="#2F6F9F"/><rect x="536" y="125.66666666666663" width="27" height="143" rx="2" fill="#2F6F9F"/><rect x="66" y="455.3333333333333" width="508" height="8" fill="#6B4220"/><rect x="70" y="316.3333333333333" width="22" height="139" rx="2" fill="#7B4FA0"/><rect x="95" y="354.3333333333333" width="23" height="101" rx="2" fill="#C5533F"/><rect x="121" y="360.3333333333333" width="17" height="95" rx="2" fill="#D4A72C"/><rect x="141" y="349.3333333333333" width="23" height="106" rx="2" fill="#C5533F"/><rect x="167" y="335.3333333333333" width="26" height="120" rx="2" fill="#E8E0C8"/><rect x="196" y="343.3333333333333" width="29" height="112" rx="2" fill="#2F6F9F"/><rect x="228" y="309.3333333333333" width="24" height="146" rx="2" fill="#2F6F9F"/><rect x="255" y="340.3333333333333" width="25" height="115" rx="2" fill="#7B4FA0"/><rect x="283" y="336.3333333333333" width="25" height="119" rx="2" fill="#7B4FA0"/><rect x="311" y="341.3333333333333" width="19" height="114" rx="2" fill="#E8E0C8"/><rect x="333" y="361.3333333333333" width="30" height="94" rx="2" fill="#C5533F"/><rect x="366" y="320.3333333333333" width="25" height="135" rx="2" fill="#E8E0C8"/><rect x="394" y="318.3333333333333" width="18" height="137" rx="2" fill="#C5533F"/><rect x="415" y="326.3333333333333" width="24" height="129" rx="2" fill="#7B4FA0"/><rect x="442" y="317.3333333333333" width="17" height="138" rx="2" fill="#E8E0C8"/><rect x="462" y="322.3333333333333" width="19" height="133" rx="2" fill="#7B4FA0"/><rect x="484" y="344.3333333333333" width="20" height="111" rx="2" fill="#0B5D4B"/><rect x="507" y="332.3333333333333" width="17" height="123" rx="2" fill="#E8E0C8"/><rect x="527" y="357.3333333333333" width="23" height="98" rx="2" fill="#C5533F"/><rect x="553" y="358.3333333333333" width="28" height="97" rx="2" fill="#2F6F9F"/><rect x="66" y="642.0" width="508" height="8" fill="#6B4220"/><rect x="70" y="540.0" width="30" height="102" rx="2" fill="#0B5D4B"/><rect x="103" y="522.0" width="20" height="120" rx="2" fill="#2F6F9F"/><rect x="126" y="542.0" width="29" height="100" rx="2" fill="#0B5D4B"/><rect x="158" y="510.0" width="25" height="132" rx="2" fill="#0B5D4B"/><rect x="186" y="504.0" width="22" height="138" rx="2" fill="#7B4FA0"/><rect x="211" y="514.0" width="21" height="128" rx="2" fill="#C5533F"/><rect x="235" y="534.0" width="24" height="108" rx="2" fill="#0B5D4B"/><rect x="262" y="549.0" width="20" height="93" rx="2" fill="#0B5D4B"/><rect x="285" y="511.0" width="17" height="131" rx="2" fill="#7B4FA0"/><rect x="305" y="537.0" width="16" height="105" rx="2" fill="#2F6F9F"/><rect x="324" y="510.0" width="20" height="132" rx="2" fill="#C5533F"/><rect x="347" y="505.0" width="18" height="137" rx="2" fill="#0B5D4B"/><rect x="368" y="528.0" width="29" height="114" rx="2" fill="#C5533F"/><rect x="400" y="541.0" width="21" height="101" rx="2" fill="#2F6F9F"/><rect x="424" y="520.0" width="22" height="122" rx="2" fill="#7B4FA0"/><rect x="449" y="508.0" width="22" height="134" rx="2" fill="#7B4FA0"/><rect x="474" y="514.0" width="26" height="128" rx="2" fill="#0B5D4B"/><rect x="503" y="498.0" width="25" height="144" rx="2" fill="#7B4FA0"/><rect x="531" y="522.0" width="20" height="120" rx="2" fill="#E8E0C8"/><rect x="554" y="504.0" width="27" height="138" rx="2" fill="#D4A72C"/><rect x="1020" y="90" width="520" height="560" rx="6" fill="#8A5A2B"/><rect x="1026" y="268.66666666666663" width="508" height="8" fill="#6B4220"/><rect x="1030" y="166.66666666666663" width="21" height="102" rx="2" fill="#2F6F9F"/><rect x="1054" y="172.66666666666663" width="26" height="96" rx="2" fill="#0B5D4B"/><rect x="1083" y="141.66666666666663" width="29" height="127" rx="2" fill="#0B5D4B"/><rect x="1115" y="138.66666666666663" width="21" height="130" rx="2" fill="#0B5D4B"/><rect x="1139" y="143.66666666666663" width="30" height="125" rx="2" fill="#D4A72C"/><rect x="1172" y="170.66666666666663" width="16" height="98" rx="2" fill="#2F6F9F"/><rect x="1191" y="171.66666666666663" width="22" height="97" rx="2" fill="#D4A72C"/><rect x="1216" y="140.66666666666663" width="17" height="128" rx="2" fill="#2F6F9F"/><rect x="1236" y="123.66666666666663" width="16" height="145" rx="2" fill="#7B4FA0"/><rect x="1255" y="161.66666666666663" width="17" height="107" rx="2" fill="#E8E0C8"/><rect x="1275" y="138.66666666666663" width="26" height="130" rx="2" fill="#0B5D4B"/><rect x="1304" y="138.66666666666663" width="25" height="130" rx="2" fill="#2F6F9F"/><rect x="1332" y="161.66666666666663" width="16" height="107" rx="2" fill="#0B5D4B"/><rect x="1351" y="121.66666666666663" width="24" height="147" rx="2" fill="#D4A72C"/><rect x="1378" y="149.66666666666663" width="20" height="119" rx="2" fill="#D4A72C"/><rect x="1401" y="168.66666666666663" width="24" height="100" rx="2" fill="#7B4FA0"/><rect x="1428" y="140.66666666666663" width="20" height="128" rx="2" fill="#E8E0C8"/><rect x="1451" y="169.66666666666663" width="18" height="99" rx="2" fill="#7B4FA0"/><rect x="1472" y="135.66666666666663" width="25" height="133" rx="2" fill="#D4A72C"/><rect x="1500" y="169.66666666666663" width="21" height="99" rx="2" fill="#7B4FA0"/><rect x="1026" y="455.3333333333333" width="508" height="8" fill="#6B4220"/><rect x="1030" y="358.3333333333333" width="27" height="97" rx="2" fill="#7B4FA0"/><rect x="1060" y="323.3333333333333" width="16" height="132" rx="2" fill="#D4A72C"/><rect x="1079" y="319.3333333333333" width="23" height="136" rx="2" fill="#7B4FA0"/><rect x="1105" y="313.3333333333333" width="22" height="142" rx="2" fill="#C5533F"/><rect x="1130" y="325.3333333333333" width="23" height="130" rx="2" fill="#2F6F9F"/><rect x="1156" y="343.3333333333333" width="21" height="112" rx="2" fill="#D4A72C"/><rect x="1180" y="351.3333333333333" width="28" height="104" rx="2" fill="#E8E0C8"/><rect x="1211" y="347.3333333333333" width="28" height="108" rx="2" fill="#0B5D4B"/><rect x="1242" y="343.3333333333333" width="25" height="112" rx="2" fill="#7B4FA0"/><rect x="1270" y="306.3333333333333" width="23" height="149" rx="2" fill="#C5533F"/><rect x="1296" y="334.3333333333333" width="27" height="121" rx="2" fill="#C5533F"/><rect x="1326" y="358.3333333333333" width="25" height="97" rx="2" fill="#0B5D4B"/><rect x="1354" y="336.3333333333333" width="24" height="119" rx="2" fill="#D4A72C"/><rect x="1381" y="341.3333333333333" width="28" height="114" rx="2" fill="#D4A72C"/><rect x="1412" y="331.3333333333333" width="30" height="124" rx="2" fill="#2F6F9F"/><rect x="1445" y="320.3333333333333" width="16" height="135" rx="2" fill="#0B5D4B"/><rect x="1464" y="327.3333333333333" width="28" height="128" rx="2" fill="#7B4FA0"/><rect x="1495" y="306.3333333333333" width="28" height="149" rx="2" fill="#C5533F"/><rect x="1026" y="642.0" width="508" height="8" fill="#6B4220"/><rect x="1030" y="505.0" width="21" height="137" rx="2" fill="#C5533F"/><rect x="1054" y="518.0" width="25" height="124" rx="2" fill="#7B4FA0"/><rect x="1082" y="520.0" width="28" height="122" rx="2" fill="#0B5D4B"/><rect x="1113" y="544.0" width="29" height="98" rx="2" fill="#C5533F"/><rect x="1145" y="505.0" width="23" height="137" rx="2" fill="#E8E0C8"/><rect x="1171" y="546.0" width="17" height="96" rx="2" fill="#E8E0C8"/><rect x="1191" y="530.0" width="27" height="112" rx="2" fill="#E8E0C8"/><rect x="1221" y="506.0" width="25" height="136" rx="2" fill="#2F6F9F"/><rect x="1249" y="504.0" width="20" height="138" rx="2" fill="#2F6F9F"/><rect x="1272" y="507.0" width="30" height="135" rx="2" fill="#C5533F"/><rect x="1305" y="520.0" width="16" height="122" rx="2" fill="#C5533F"/><rect x="1324" y="510.0" width="18" height="132" rx="2" fill="#0B5D4B"/><rect x="1345" y="546.0" width="23" height="96" rx="2" fill="#D4A72C"/><rect x="1371" y="531.0" width="28" height="111" rx="2" fill="#D4A72C"/><rect x="1402" y="534.0" width="27" height="108" rx="2" fill="#2F6F9F"/><rect x="1432" y="494.0" width="22" height="148" rx="2" fill="#2F6F9F"/><rect x="1457" y="539.0" width="17" height="103" rx="2" fill="#2F6F9F"/><rect x="1477" y="514.0" width="22" height="128" rx="2" fill="#C5533F"/><rect x="1502" y="541.0" width="30" height="101" rx="2" fill="#2F6F9F"/><ellipse cx="800" cy="860" rx="620" ry="120" fill="#0B5D4B"/><ellipse cx="800" cy="860" rx="540" ry="92" fill="#16825F"/><circle cx="800" cy="300" r="170" fill="#F3D98A" opacity=".55"/><path d="M700 330 h200 M800 230 v200" stroke="#fff" stroke-width="6" opacity=".7"/><g><ellipse cx="520" cy="902" rx="92.34" ry="9.5" fill="#000" opacity=".12"/><rect x="473.83" y="757.88" width="97.47" height="45.220000000000006" rx="14.7744" fill="#0B5D4B"/><rect x="540.52" y="770.8" width="36.936" height="122.74000000000001" rx="14.7744" fill="#0B5D4B"/><rect x="468.7" y="645.4" width="102.60000000000001" height="129.4" rx="22.572000000000003" fill="#FFFFFF"/><path d="M501.532 645.4 L520 670.48 L538.468 645.4" fill="none" stroke="#0B5D4B" stroke-width="4.5600000000000005"/><rect x="453.025" y="648.4" width="28.5" height="106.59" rx="14.25" fill="#FFFFFF"/><circle cx="467.275" cy="758.26" r="15.675" fill="#8D5524"/><rect x="509.74" y="689.29" width="63.612" height="50.160000000000004" rx="3" fill="#D4A72C"/><rect x="509.74" y="689.29" width="8.208" height="50.160000000000004" fill="#0B5D4B"/><rect x="558.4749999999999" y="648.4" width="28.5" height="106.59" rx="14.25" fill="#FFFFFF"/><circle cx="572.7249999999999" cy="758.26" r="15.675" fill="#8D5524"/><rect x="503.375" y="621.65" width="33.25" height="38.0" fill="#8D5524"/><circle cx="520" cy="595.525" r="47.5" fill="#8D5524"/><path d="M470.125 600.275 A49.875 52.25000000000001 0 0 1 569.875 600.275 Q520 559.9 470.125 600.275Z" fill="#1A1008"/><circle cx="472.5" cy="574.15" r="19.95" fill="#1A1008"/><circle cx="567.5" cy="574.15" r="19.95" fill="#1A1008"/><circle cx="503.375" cy="601.225" r="4.2749999999999995" fill="#1a1008"/><circle cx="536.625" cy="601.225" r="4.2749999999999995" fill="#1a1008"/><path d="M506.7 616.9 Q520 626.4 533.3 616.9" stroke="#2b1408" stroke-width="3.8000000000000003" fill="none" stroke-linecap="round"/></g><g><ellipse cx="690" cy="922" rx="85.05" ry="8.75" fill="#000" opacity=".12"/><rect x="647.475" y="789.1" width="89.77499999999999" height="41.650000000000006" rx="13.607999999999999" fill="#16324F"/><rect x="708.9" y="801.0" width="34.019999999999996" height="113.05000000000001" rx="13.607999999999999" fill="#16324F"/><rect x="642.75" y="685.5" width="94.5" height="119.5" rx="20.79" fill="#F3D98A"/><rect x="628.3125" y="688.5" width="26.25" height="98.175" rx="13.125" fill="#F3D98A"/><circle cx="641.4375" cy="789.45" r="14.437500000000002" fill="#6B3E1E"/><rect x="680.55" y="725.925" width="58.589999999999996" height="46.2" rx="3" fill="#D4A72C"/><rect x="680.55" y="725.925" width="7.5600000000000005" height="46.2" fill="#0B5D4B"/><rect x="725.4375" y="688.5" width="26.25" height="98.175" rx="13.125" fill="#F3D98A"/><circle cx="738.5625" cy="789.45" r="14.437500000000002" fill="#6B3E1E"/><rect x="674.6875" y="663.625" width="30.624999999999996" height="35.0" fill="#6B3E1E"/><circle cx="690" cy="639.5625" r="43.75" fill="#6B3E1E"/><path d="M644.0625 643.9375 A45.9375 48.12500000000001 0 0 1 735.9375 643.9375 Q690 606.75 644.0625 643.9375Z" fill="#1A1008"/><circle cx="674.6875" cy="644.8125" r="3.9375" fill="#1a1008"/><circle cx="705.3125" cy="644.8125" r="3.9375" fill="#1a1008"/><path d="M677.75 659.25 Q690 668.0 702.25 659.25" stroke="#2b1408" stroke-width="3.5" fill="none" stroke-linecap="round"/></g><g transform="translate(1720 0) scale(-1 1)"><ellipse cx="860" cy="902" rx="92.34" ry="9.5" fill="#000" opacity=".12"/><rect x="813.83" y="757.88" width="97.47" height="45.220000000000006" rx="14.7744" fill="#0B5D4B"/><rect x="880.52" y="770.8" width="36.936" height="122.74000000000001" rx="14.7744" fill="#0B5D4B"/><rect x="808.7" y="645.4" width="102.60000000000001" height="129.4" rx="22.572000000000003" fill="#BFE3EA"/><path d="M841.532 645.4 L860 670.48 L878.468 645.4" fill="none" stroke="#0B5D4B" stroke-width="4.5600000000000005"/><rect x="793.0250000000001" y="648.4" width="28.5" height="106.59" rx="14.25" fill="#BFE3EA"/><circle cx="807.2750000000001" cy="758.26" r="15.675" fill="#A9673A"/><rect x="849.74" y="689.29" width="63.612" height="50.160000000000004" rx="3" fill="#D4A72C"/><rect x="849.74" y="689.29" width="8.208" height="50.160000000000004" fill="#0B5D4B"/><rect x="898.4749999999999" y="648.4" width="28.5" height="106.59" rx="14.25" fill="#BFE3EA"/><circle cx="912.7249999999999" cy="758.26" r="15.675" fill="#A9673A"/><rect x="843.375" y="621.65" width="33.25" height="38.0" fill="#A9673A"/><circle cx="860" cy="595.525" r="47.5" fill="#A9673A"/><path d="M810.125 600.275 A49.875 52.25000000000001 0 0 1 909.875 600.275 Q860 559.9 810.125 600.275Z" fill="#1A1008"/><circle cx="812.5" cy="574.15" r="19.95" fill="#1A1008"/><circle cx="907.5" cy="574.15" r="19.95" fill="#1A1008"/><circle cx="843.375" cy="601.225" r="4.2749999999999995" fill="#1a1008"/><circle cx="876.625" cy="601.225" r="4.2749999999999995" fill="#1a1008"/><path d="M846.7 616.9 Q860 626.4 873.3 616.9" stroke="#2b1408" stroke-width="3.8000000000000003" fill="none" stroke-linecap="round"/></g><g transform="translate(2060 0) scale(-1 1)"><ellipse cx="1030" cy="922" rx="85.05" ry="8.75" fill="#000" opacity=".12"/><rect x="987.475" y="789.1" width="89.77499999999999" height="41.650000000000006" rx="13.607999999999999" fill="#2B2B2B"/><rect x="1048.9" y="801.0" width="34.019999999999996" height="113.05000000000001" rx="13.607999999999999" fill="#2B2B2B"/><rect x="982.75" y="685.5" width="94.5" height="119.5" rx="20.79" fill="#FFFFFF"/><path d="M1012.99 685.5 L1030 708.6 L1047.01 685.5" fill="none" stroke="#0B5D4B" stroke-width="4.2"/><rect x="968.3125" y="688.5" width="26.25" height="98.175" rx="13.125" fill="#FFFFFF"/><circle cx="981.4375" cy="789.45" r="14.437500000000002" fill="#4A2A14"/><rect x="1020.55" y="725.925" width="58.589999999999996" height="46.2" rx="3" fill="#D4A72C"/><rect x="1020.55" y="725.925" width="7.5600000000000005" height="46.2" fill="#0B5D4B"/><rect x="1065.4375" y="688.5" width="26.25" height="98.175" rx="13.125" fill="#FFFFFF"/><circle cx="1078.5625" cy="789.45" r="14.437500000000002" fill="#4A2A14"/><rect x="1014.6875" y="663.625" width="30.624999999999996" height="35.0" fill="#4A2A14"/><circle cx="1030" cy="639.5625" r="43.75" fill="#4A2A14"/><path d="M984.0625 643.9375 A45.9375 48.12500000000001 0 0 1 1075.9375 643.9375 Q1030 606.75 984.0625 643.9375Z" fill="#1A1008"/><circle cx="1014.6875" cy="644.8125" r="3.9375" fill="#1a1008"/><circle cx="1045.3125" cy="644.8125" r="3.9375" fill="#1a1008"/><path d="M1017.75 659.25 Q1030 668.0 1042.25 659.25" stroke="#2b1408" stroke-width="3.5" fill="none" stroke-linecap="round"/></g><g transform="translate(2320 0) scale(-1 1)"><ellipse cx="1160" cy="902" rx="92.34" ry="9.5" fill="#000" opacity=".12"/><rect x="1113.83" y="757.88" width="97.47" height="45.220000000000006" rx="14.7744" fill="#063D32"/><rect x="1180.52" y="770.8" width="36.936" height="122.74000000000001" rx="14.7744" fill="#063D32"/><rect x="1108.7" y="645.4" width="102.60000000000001" height="129.4" rx="22.572000000000003" fill="#E8F3EE"/><path d="M1141.532 645.4 L1160 670.48 L1178.468 645.4" fill="none" stroke="#0B5D4B" stroke-width="4.5600000000000005"/><rect x="1093.025" y="648.4" width="28.5" height="106.59" rx="14.25" fill="#E8F3EE"/><circle cx="1107.275" cy="758.26" r="15.675" fill="#C68642"/><rect x="1149.74" y="689.29" width="63.612" height="50.160000000000004" rx="3" fill="#D4A72C"/><rect x="1149.74" y="689.29" width="8.208" height="50.160000000000004" fill="#0B5D4B"/><rect x="1198.475" y="648.4" width="28.5" height="106.59" rx="14.25" fill="#E8F3EE"/><circle cx="1212.725" cy="758.26" r="15.675" fill="#C68642"/><rect x="1143.375" y="621.65" width="33.25" height="38.0" fill="#C68642"/><circle cx="1160" cy="595.525" r="47.5" fill="#C68642"/><path d="M1110.125 600.275 A49.875 52.25000000000001 0 0 1 1209.875 600.275 Q1160 559.9 1110.125 600.275Z" fill="#1A1008"/><circle cx="1112.5" cy="574.15" r="19.95" fill="#1A1008"/><circle cx="1207.5" cy="574.15" r="19.95" fill="#1A1008"/><circle cx="1143.375" cy="601.225" r="4.2749999999999995" fill="#1a1008"/><circle cx="1176.625" cy="601.225" r="4.2749999999999995" fill="#1a1008"/><path d="M1146.7 616.9 Q1160 626.4 1173.3 616.9" stroke="#2b1408" stroke-width="3.8000000000000003" fill="none" stroke-linecap="round"/></g><rect x="222.0" y="874.0" width="156.0" height="23.400000000000002" rx="4" fill="#0B5D4B"/><rect x="226.0" y="848.0" width="148.0" height="23.400000000000002" rx="4" fill="#D4A72C"/><rect x="230.0" y="822.0" width="140.0" height="23.400000000000002" rx="4" fill="#C5533F"/><rect x="234.0" y="796.0" width="132.0" height="23.400000000000002" rx="4" fill="#2F6F9F"/></svg>